<svg width="100" height="100" viewBox="0 0 100 100" fill="none" xmlns="http://www.w3.org/2000/svg">
<path d="M31.451 74.3179C31.574 78.92 32.0336 80.0807 37.7532 80.4943V83.9998H17.3559V80.4943C23.0756 80.0807 23.7038 78.92 23.8268 74.3179L23.8231 45.6894C14.2919 45.3648 12.7203 47.3972 11.2775 54.0039H7C7.82909 50.2205 8.65013 46.6096 8.65013 41.4248H46.6238C46.6238 46.6098 47.0385 50.2205 47.8676 54.0039H43.676C42.2331 47.3972 40.9821 45.3648 31.4509 45.6892L31.451 74.3179ZM71.3513 73.4466C71.4913 77.134 73.2353 79.462 79.7503 79.7932V84H54.4248V79.7932C60.9396 79.4618 62.5271 77.1338 62.667 73.4464L62.6628 21.6571C50.4019 21.3632 47.0313 22.7671 45.9879 31.1278H41.0143C42.0794 26.8182 41.9147 21.9056 41.9147 16H91.4021C91.4021 21.9058 91.9347 26.8183 93 31.1276H87.6149C85.7611 23.6024 82.2077 21.2873 71.3513 21.6569V73.4466Z" fill="#AFAFAF"/>
</svg>
