<svg width="100" height="100" viewBox="0 0 100 100" fill="none" xmlns="http://www.w3.org/2000/svg">
<path d="M92 45.3333V36H82.6667V26.6667C82.6593 24.1936 81.6736 21.8239 79.9248 20.0752C78.1761 18.3264 75.8064 17.3407 73.3333 17.3333H64V8H54.6667V17.3333H45.3333V8H36V17.3333H26.6667C24.1936 17.3407 21.8239 18.3264 20.0752 20.0752C18.3264 21.8239 17.3407 24.1936 17.3333 26.6667V36H8V45.3333H17.3333V54.6667H8V64H17.3333V73.3333C17.3407 75.8064 18.3264 78.1761 20.0752 79.9248C21.8239 81.6736 24.1936 82.6593 26.6667 82.6667H36V92H45.3333V82.6667H54.6667V92H64V82.6667H73.3333C75.8064 82.6593 78.1761 81.6736 79.9248 79.9248C81.6736 78.1761 82.6593 75.8064 82.6667 73.3333V64H92V54.6667H82.6667V45.3333H92ZM73.3333 73.3333H26.6667V26.6667H73.3333V73.3333Z" fill="#AFAFAF"/>
<path d="M46.7599 31H40.4418L31 69H35.8243L38.0039 60.0938H48.8831L51.0064 69H55.995L46.7599 31ZM38.638 56.289L43.42 35.5125H43.6361L48.2537 56.289H38.638ZM60.3026 31H65V69H60.3026V31Z" fill="#AFAFAF"/>
</svg>
