<svg width="41" height="46" viewBox="0 0 41 46" fill="none" xmlns="http://www.w3.org/2000/svg">
<path d="M20 45.5001L20 46.0001L21 46.0001L21 45.5001L20.5 45.5001L20 45.5001ZM17.8333 25.5001C17.8333 26.9728 19.0272 28.1667 20.5 28.1667C21.9728 28.1667 23.1667 26.9728 23.1667 25.5001C23.1667 24.0273 21.9728 22.8334 20.5 22.8334C19.0272 22.8334 17.8333 24.0273 17.8333 25.5001ZM1.04831 25.151L1.53461 25.0347L1.53461 25.0347L1.04831 25.151ZM1.85391 13.2665L2.32006 13.4474L2.32006 13.4474L1.85391 13.2665ZM9.27369 3.94796L8.99303 3.53416L8.99303 3.53416L9.27369 3.94796ZM20.6757 0.500772L20.6713 1.00075L20.6757 0.500772ZM32.0154 4.14775L31.7275 4.55656L31.7275 4.55656L32.0154 4.14775ZM39.2703 13.5952L38.801 13.7679L38.801 13.7679L39.2703 13.5952ZM20.5 45.5001L21 45.5001L21 25.5001L20.5 25.5001L20 25.5001L20 45.5001L20.5 45.5001ZM7.14267 35.3856L7.4766 35.0135C4.52838 32.3679 2.45577 28.8873 1.53461 25.0347L1.04831 25.151L0.562021 25.2672C1.53043 29.3174 3.70933 32.9765 6.80873 35.7577L7.14267 35.3856ZM1.04831 25.151L1.53461 25.0347C0.613438 21.1821 0.887412 17.1404 2.32006 13.4474L1.85391 13.2665L1.38775 13.0857C-0.118362 16.9681 -0.406386 21.2171 0.562021 25.2672L1.04831 25.151ZM1.85391 13.2665L2.32006 13.4474C3.7527 9.75436 6.27608 6.58523 9.55434 4.36176L9.27369 3.94796L8.99303 3.53416C5.54665 5.87165 2.89387 9.2033 1.38775 13.0857L1.85391 13.2665ZM9.27369 3.94796L9.55434 4.36176C12.8326 2.1383 16.7103 0.965955 20.6713 1.00075L20.6757 0.500772L20.6801 0.000791391C16.5159 -0.035791 12.4394 1.19668 8.99303 3.53416L9.27369 3.94796ZM20.6757 0.500772L20.6713 1.00075C24.6323 1.03555 28.4888 2.27584 31.7275 4.55656L32.0154 4.14775L32.3033 3.73894C28.8985 1.34127 24.8442 0.0373738 20.6801 0.000791391L20.6757 0.500772ZM32.0154 4.14775L31.7275 4.55656C34.9662 6.83727 37.4335 10.0502 38.801 13.7679L39.2703 13.5952L39.7395 13.4226C38.3019 9.51436 35.708 6.13662 32.3033 3.73894L32.0154 4.14775ZM39.2703 13.5952L38.801 13.7679C40.1686 17.4855 40.3715 21.5314 39.3828 25.3672L39.867 25.492L40.3511 25.6168C41.3905 21.5843 41.1772 17.3309 39.7395 13.4226L39.2703 13.5952ZM39.867 25.492L39.3828 25.3672C38.3941 29.203 36.2606 32.6467 33.2664 35.24L33.5937 35.618L33.9211 35.9959C37.0689 33.2696 39.3117 29.6493 40.3511 25.6168L39.867 25.492Z" fill="#C9C9C9"/>
</svg>
