<svg width="82" height="41" viewBox="0 0 82 41" fill="none" xmlns="http://www.w3.org/2000/svg">
<path d="M0.500752 19.7446L0.000752737 19.7439L-0.000751606 20.7439L0.499248 20.7446L0.5 20.2446L0.500752 19.7446ZM52.8333 20.3274C52.8333 21.8001 54.0272 22.994 55.4999 22.994C56.9727 22.994 58.1666 21.8001 58.1666 20.3274C58.1666 18.8546 56.9727 17.6607 55.4999 17.6607C54.0272 17.6607 52.8333 18.8546 52.8333 20.3274ZM56.0608 1.04831L56.177 1.53461L56.177 1.53461L56.0608 1.04831ZM67.9452 1.85391L67.7644 2.32006L67.7644 2.32006L67.9452 1.85391ZM77.2638 9.27369L77.6776 8.99303L77.6776 8.99303L77.2638 9.27369ZM0.5 20.2446L0.499248 20.7446L55.4992 20.8274L55.4999 20.3274L55.5007 19.8274L0.500752 19.7446L0.5 20.2446ZM45.8261 7.14267L46.1983 7.4766C48.8438 4.52838 52.3245 2.45577 56.177 1.53461L56.0608 1.04831L55.9445 0.56202C51.8943 1.53043 48.2352 3.70933 45.454 6.80873L45.8261 7.14267ZM56.0608 1.04831L56.177 1.53461C60.0296 0.613438 64.0713 0.887412 67.7644 2.32006L67.9452 1.85391L68.126 1.38775C64.2436 -0.118362 59.9946 -0.406386 55.9445 0.56202L56.0608 1.04831ZM67.9452 1.85391L67.7644 2.32006C71.4574 3.7527 74.6265 6.27608 76.85 9.55434L77.2638 9.27369L77.6776 8.99303C75.3401 5.54665 72.0084 2.89387 68.126 1.38775L67.9452 1.85391ZM77.2638 9.27369L76.85 9.55434C79.0734 12.8326 80.2458 16.7103 80.211 20.6713L80.711 20.6757L81.2109 20.6801C81.2475 16.5159 80.015 12.4394 77.6776 8.99303L77.2638 9.27369ZM80.711 20.6757L80.211 20.6713C80.1762 24.6323 78.9359 28.4888 76.6552 31.7275L77.064 32.0154L77.4728 32.3033C79.8705 28.8985 81.1744 24.8442 81.2109 20.6801L80.711 20.6757ZM77.064 32.0154L76.6552 31.7275C74.3745 34.9662 71.1615 37.4335 67.4439 38.801L67.6165 39.2703L67.7891 39.7395C71.6974 38.3019 75.0751 35.708 77.4728 32.3033L77.064 32.0154ZM67.6165 39.2703L67.4439 38.801C63.7263 40.1686 59.6803 40.3715 55.8445 39.3828L55.7197 39.867L55.5949 40.3511C59.6274 41.3905 63.8808 41.1772 67.7891 39.7395L67.6165 39.2703ZM55.7197 39.867L55.8445 39.3828C52.0087 38.3941 48.565 36.2606 45.9717 33.2664L45.5938 33.5937L45.2158 33.9211C47.9421 37.0689 51.5624 39.3117 55.5949 40.3511L55.7197 39.867Z" fill="#C9C9C9"/>
</svg>
