<svg width="25" height="25" viewBox="0 0 25 25" fill="none" xmlns="http://www.w3.org/2000/svg">
<path d="M12.5 0C5.6125 0 0 5.6125 0 12.5C0 19.3875 5.6125 25 12.5 25C19.3875 25 25 19.3875 25 12.5C25 5.6125 19.3875 0 12.5 0ZM22.4125 11.25H18.8375C18.7 8.525 17.9375 5.8375 16.625 3.4C18.1788 4.10663 19.5262 5.19877 20.5392 6.5727C21.5521 7.94662 22.197 9.5567 22.4125 11.25ZM13.1125 2.525C14.9875 5.075 16.1375 8.175 16.3375 11.25H8.9125C9.0875 8 10.125 4.9625 11.9 2.525C12.1 2.525 12.3 2.5 12.5 2.5C12.7 2.5 12.9125 2.5125 13.1125 2.525ZM8.4625 3.35C7.25 5.725 6.55 8.425 6.4125 11.2375H2.5875C3.025 7.7 5.325 4.7375 8.4625 3.35ZM2.5875 13.7375H6.425C6.5875 16.7375 7.25 19.375 8.35 21.575C6.80179 20.8671 5.45992 19.7757 4.4515 18.4042C3.44307 17.0326 2.80148 15.4264 2.5875 13.7375ZM11.8625 22.45C10.1625 20.325 9.15 17.35 8.925 13.7375H16.3125C16.0625 17.2 14.95 20.2375 13.15 22.45C12.9375 22.4625 12.7125 22.4875 12.5 22.4875C12.2875 22.4875 12.075 22.4625 11.8625 22.45ZM16.725 21.5375C17.9125 19.2875 18.625 16.6375 18.8125 13.7375H22.4125C22.1998 15.412 21.5668 17.0054 20.5723 18.3692C19.5778 19.7331 18.2543 20.823 16.725 21.5375Z" fill="white"/>
</svg>
