<svg width="1560" height="277" viewBox="0 0 1560 277" fill="none" xmlns="http://www.w3.org/2000/svg">
<mask id="mask0_269_432" style="mask-type:luminance" maskUnits="userSpaceOnUse" x="0" y="0" width="1560" height="278">
<path d="M1560 0H0V277.001H1560V0Z" fill="white"/>
</mask>
<g mask="url(#mask0_269_432)">
<path d="M119.219 73.0752V226.986C119.219 261.996 90.8611 277.001 61.1503 277.001C2.49882 277.001 0 252.563 0 206.982H42.8086C42.8086 223.102 39.1765 246.989 61.1503 246.989C70.5831 246.989 77.2716 238.386 77.2716 229.783V73.0752H119.219Z" fill="white"/>
<path d="M374.32 73.0752V215.333C374.32 245.319 357.371 277.001 306.236 277.001C260.1 277.001 237.877 253.119 237.877 215.333V73.0752H279.827V212.556C279.827 237.279 290.393 246.989 305.68 246.989C324.021 246.989 332.347 234.78 332.347 212.556V73.0752H374.32Z" fill="white"/>
<path d="M492.982 273.675V73.0762H549.665L603.02 212H603.571V73.0762H642.747V273.675H587.456L532.715 126.976H532.158V273.675H492.982Z" fill="white"/>
<path d="M847.102 134.74C847.38 116.122 844.331 99.7301 822.105 99.7301C795.968 99.7301 795.968 135.018 795.968 173.912C795.968 236.712 802.098 247.841 825.989 247.841C832.929 247.841 840.44 246.144 846.826 243.931V199.492H824.047V168.645H888.777V270.34C877.396 272.564 848.766 276.995 832.094 276.995C761.511 276.995 753.463 247.842 753.463 171.695C753.463 121.123 755.962 69.7422 824.603 69.7422C865.715 69.7422 891.295 92.801 888.776 134.744L847.102 134.74Z" fill="white"/>
<path d="M1007.43 273.675V73.0762H1049.38V240.329H1112.19V273.674H1007.43V273.675Z" fill="white"/>
<path d="M1233.72 73.0742H1191.77V273.673H1233.72V73.0742Z" fill="white"/>
<path d="M1361.88 273.675V73.0762H1429.4L1460.81 209.482H1461.37L1494.69 73.0762H1560V273.675H1519.16V118.91H1518.6L1479.98 273.675H1439.95L1403.27 118.91H1402.72V273.675H1361.88Z" fill="white"/>
<path d="M1297.77 0L1233.72 73.0741H1191.78L1255.82 0H1297.77Z" fill="white"/>
</g>
</svg>
